<?xml version="1.0" standalone="no"?>
<!DOCTYPE svg PUBLIC "-//W3C//DTD SVG 20010904//EN"
 "http://www.w3.org/TR/2001/REC-SVG-20010904/DTD/svg10.dtd">
<svg version="1.0" xmlns="http://www.w3.org/2000/svg"
 width="128.000000pt" height="128.000000pt" viewBox="0 0 128.000000 128.000000"
 preserveAspectRatio="xMidYMid meet">
<metadata>
Created by potrace 1.14, written by Peter Selinger 2001-2017
</metadata>
<g transform="translate(0.000000,128.000000) scale(0.100000,-0.100000)"
fill="#000000" stroke="none">
<path d="M345 1108 c-120 -43 -186 -140 -182 -266 2 -54 8 -78 30 -115 34 -58
93 -103 161 -122 173 -48 342 98 323 279 -9 87 -64 169 -139 207 -46 24 -149
32 -193 17z"/>
<path d="M870 1001 c-14 -4 -31 -20 -39 -36 -12 -25 -12 -32 0 -54 8 -13 26
-28 41 -32 58 -15 105 65 61 103 -27 23 -36 25 -63 19z"/>
<path d="M815 763 c-115 -60 -143 -203 -58 -299 55 -63 168 -78 239 -31 95 64
116 184 47 275 -49 66 -158 92 -228 55z"/>
<path d="M595 612 c-44 -8 -60 -66 -27 -95 50 -45 114 13 82 72 -11 22 -28 29
-55 23z"/>
<path d="M422 433 c-76 -49 -101 -138 -62 -217 55 -114 218 -126 288 -22 103
152 -74 338 -226 239z"/>
<path d="M750 360 c-49 -49 -9 -132 59 -122 58 8 78 67 40 116 -25 32 -70 35
-99 6z"/>
</g>
</svg>
